<?xml version="1.0" encoding="UTF-8" standalone="no"?>
<svg
   viewBox="0 0 103.16926 102.47"
   height="102.47"
   width="103.169"
   version="1.1"
   id="svg3725"
   sodipodi:docname="bib.svg"
   inkscape:version="1.2.2 (b0a8486541, 2022-12-01)"
   xmlns:inkscape="http://www.inkscape.org/namespaces/inkscape"
   xmlns:sodipodi="http://sodipodi.sourceforge.net/DTD/sodipodi-0.dtd"
   xmlns="http://www.w3.org/2000/svg"
   xmlns:svg="http://www.w3.org/2000/svg"
   xmlns:rdf="http://www.w3.org/1999/02/22-rdf-syntax-ns#"
   xmlns:cc="http://creativecommons.org/ns#"
   xmlns:dc="http://purl.org/dc/elements/1.1/">
  <metadata
     id="metadata3731">
    <rdf:rdf>
      <cc:work
         rdf:about="">
        <dc:format>image/svg+xml</dc:format>
        <dc:type
           rdf:resource="http://purl.org/dc/dcmitype/StillImage" />
        <dc:title />
      </cc:work>
    </rdf:rdf>
  </metadata>
  <defs
     id="defs3729" />
  <sodipodi:namedview
     pagecolor="#ffffff"
     bordercolor="#666666"
     borderopacity="1"
     objecttolerance="10"
     gridtolerance="10"
     guidetolerance="10"
     inkscape:pageopacity="0"
     inkscape:pageshadow="2"
     inkscape:window-width="1920"
     inkscape:window-height="1009"
     id="namedview3727"
     showgrid="false"
     inkscape:zoom="7.23"
     inkscape:cx="54.979253"
     inkscape:cy="50.622407"
     inkscape:window-x="-8"
     inkscape:window-y="-8"
     inkscape:window-maximized="1"
     inkscape:current-layer="svg3725"
     inkscape:showpageshadow="2"
     inkscape:pagecheckerboard="0"
     inkscape:deskcolor="#d1d1d1" />
  <path
     d="M8.13 50.7l-4.43.046 2.56 20.84 1.87-.023V50.7zm5.584-20.138c.38-.555.568-1.424.568-2.608 0-.952-.17-1.747-.508-2.388-.338-.63-.84-.942-1.51-.942-1.378 0-2.067 1.157-2.067 3.473 0 .954.17 1.74.51 2.357.328.63.833.942 1.51.942.61 0 1.112-.28 1.497-.834m15.406-4.06c0 .113.005.22.012.313h3.417c.015-.315.022-.494.022-.536 0-.83-.16-1.518-.48-2.06-.323-.537-.75-.804-1.282-.804-.547 0-.966.294-1.255.882-.29.6-.435 1.333-.435 2.203m52.685 40.577c0-2-.337-3.528-1.013-4.585-.678-1.037-1.578-1.56-2.708-1.56-1.207 0-2.13.57-2.777 1.704-.646 1.17-.97 2.642-.97 4.41 0 4.21 1.277 6.313 3.835 6.313 2.423.002 3.633-2.09 3.633-6.283m11.27-.26c0 2.15-.27 4.103-.81 5.85-.538 1.75-1.347 3.325-2.424 4.73-2.135 2.846-4.815 4.268-8.04 4.268-2.857 0-5.316-.803-7.38-2.408v1.89H60.47v-8.79h2.814V49.844h-2.856v-8.77h13.995v13.9c1.886-1.538 4.177-2.306 6.873-2.306 3.402 0 6.216 1.27 8.44 3.806 2.226 2.532 3.34 5.984 3.34 10.343m-37.29-21.624c0 1.494-.563 2.68-1.683 3.55-1.137.89-2.564 1.334-4.292 1.334-1.753 0-3.213-.405-4.377-1.22-1.166-.797-1.75-2.01-1.75-3.636 0-1.495.598-2.696 1.793-3.605 1.18-.908 2.64-1.362 4.38-1.362 1.784 0 3.223.474 4.312 1.42 1.077.966 1.617 2.14 1.617 3.52m-13.382 8.002H55.74v19.162h1.86v8.787H42.4v-8.787h2.214V61.984h-2.214l.002-8.79zM38.283 28.8h-9.225c.025 2.477.732 3.714 2.125 3.714.837 0 1.44-.565 1.812-1.698l5.01.798c-.227.68-.54 1.287-.942 1.824-.4.537-.893 1.006-1.473 1.402-1.17.813-2.565 1.22-4.19 1.22-2.73 0-4.78-.737-6.157-2.215-1.376-1.468-2.066-3.39-2.066-5.77 0-2.325.68-4.266 2.042-5.815 1.34-1.55 3.165-2.326 5.466-2.326 2.214 0 4.018.734 5.41 2.203 1.37 1.46 2.097 3.677 2.185 6.66M20.32 13.763v17.07h1.525v4.794h-7.602v-1.03c-1.128.873-2.434 1.31-3.915 1.31-1.653 0-3.116-.653-4.39-1.962-1.27-1.31-1.907-3.184-1.907-5.624 0-2.63.588-4.66 1.765-6.095 1.176-1.412 2.75-2.12 4.726-2.12 1.45 0 2.69.416 3.723 1.246v-2.796h-1.498v-4.79h7.576zm82.803 67.953L94.226 9.258c-.34-2.777-3.188-4.715-6.358-4.325l-61.742 7.58L24.56 0 3.58 15.28c-.655.433-3.894 2.766-3.553 5.543L2.57 41.557l-.052-.49 21.744-.004c3.688 0 6.543.278 8.565.84 1.99.578 3.553 1.726 4.69 3.44 1.135 1.747 1.703 3.783 1.703 6.106 0 2.264-.54 4.067-1.615 5.41-1.107 1.386-2.45 2.345-4.027 2.884 2.17.845 3.836 2.15 5.002 3.915 1.18 1.804 1.77 3.83 1.77 6.077 0 2.688-.663 4.973-1.99 6.854-1.328 1.86-3.15 3.08-5.47 3.657-2.285.596-5.626.893-11.906.963l-13.543.008L8.92 93.28c.343 2.777 3.19 4.715 6.36 4.326l63.685-7.82 1.58 12.684 20.73-16.412s.085-.053.218-.16c.953-.776 1.898-2.064 1.63-4.18M26.407 71.504c.734-.578 1.104-1.598 1.104-3.06 0-1.368-.33-2.38-.995-3.032-.664-.637-1.95-.955-3.85-.955H20.03v7.914h2.68c1.71 0 2.942-.29 3.696-.866m-.223-15.318c.53-.672.796-1.553.796-2.646 0-.938-.244-1.78-.73-2.53-.487-.746-1.82-1.12-4.006-1.12h-2.212v7.302h2.633c1.783-.002 2.957-.336 3.517-1.006"
     id="path3723"
     style="fill:#d2052f;fill-opacity:1" />
</svg>
